#N canvas 4 88 1912 956 10;
#X obj 324 270 r notesIn-\$1;
#X obj 324 685 s notesOut-\$1;
#X obj 45 270 inlet~ inL-\$1;
#X obj 155 270 inlet~ inR-\$1;
#X obj 47 685 outlet~ outL-\$1;
#X obj 156 685 outlet~ outR-\$1;
#X obj 444 269 r auxIn-\$1;
#X obj 443 292 r expIn-\$1;
#X obj 443 317 r fsIn-\$1;
#X obj 936 104 / 100;
#X obj 936 64 r l_amt-\$1;
#X obj 689 401 *;
#X obj 527 576 pack 0 0;
#X obj 527 486 r l_bus-\$1;
#X obj 524 269 r ctrlIn-\$1;
#X obj 527 684 s ctrlOut-\$1;
#X obj 608 576 < 10;
#X obj 527 636 spigot 0;
#X obj 736 593 != 1;
#X obj 691 636 spigot 0;
#X obj 691 684 s rackMsgs;
#X obj 1012 106 / 100;
#X obj 1012 66 r l_offset-\$1;
#X obj 689 422 +;
#N canvas 0 22 450 278 (subpatch) 0;
#X array wavef-\$1 1027 float 2;
#X coords 0 1 1027 -1 200 140 1;
#X restore 1003 394 graph;
#X msg 1059 255 \; wavef-\$1 sinesum 1024 1;
#X msg 1443 219 \; wavef-\$1 normalize 1;
#X obj 1059 233 symbol \$1;
#X obj 1443 197 symbol \$1;
#X obj 1228 236 symbol \$1;
#X obj 1119 61 r l_wave-\$1;
#X obj 1119 82 route 0 1 2 3;
#X msg 1228 259 \; wavef-\$1 sinesum 1024 1 0.5 0.333333 0.25 0.2 0.166667
0.142857 0.125 0.111111 0.1 0.090909 0.0833333 0.076923;
#X obj 1230 317 symbol \$1;
#X msg 1230 339 \; wavef-\$1 sinesum 1024 1 0 -0.111111 0 0.04 0 -0.0204082
0 0.0123456 0 -0.00826446 0;
#X obj 1140 113 t b b;
#X obj 1205 113 t b b;
#X obj 1232 393 symbol \$1;
#X obj 1251 111 t b b;
#X msg 1232 415 \; wavef-\$1 sinesum 1024 1 0 0.333333 0 0.2 0 0.142857
0 0.111111 0 0.090909 0 0.076923;
#X obj 689 290 line;
#X obj 689 334 tabread wavef-\$1;
#X obj 780 199 t b b;
#X msg 808 226 set 0;
#X obj 758 287 > 1023;
#X obj 758 308 sel 1;
#X text 1309 235 ramp;
#X text 1313 315 triangle;
#X text 1318 392 square;
#X text 1127 229 sine;
#X obj 689 355 + 1;
#X obj 689 376 / 2;
#X text 500 380 modulation is unipolar 0 to 1;
#X obj 689 449 clip 0 1;
#X obj 689 470 change -1;
#X obj 690 564 pack s 0 0;
#X obj 690 531 symbol \$1;
#X obj 689 499 t b f;
#X msg 691 663 modulate \$1 \$2 \$3;
#X obj 690 187 f;
#X obj 688 150 sel 0;
#X msg 639 186 set 0;
#X msg 689 266 1024 \$1;
#X obj 625 87 r master-bpm;
#X obj 562 46 loadbang;
#X obj 799 85 r l_barlen-\$1;
#X obj 714 85 r l_nbars-\$1;
#X obj 627 108 expr 60 / $f1 * 1000 * $f2 * $f3;
#X obj 572 69 tgl 15 0 empty empty empty 17 7 0 10 -262144 -1 -1 1
1;
#X text 630 38 receive bpm \, numbe of bars to cycle over and number
of beats per bar \, send wave period in ms, f 39;
#X text 355 42 === Clock LFO === measured in bars and beats per bar
Adapted from Technobar's Original LFO patch;
#X connect 9 0 11 1;
#X connect 10 0 9 0;
#X connect 11 0 23 0;
#X connect 12 0 17 0;
#X connect 13 0 16 0;
#X connect 13 0 12 0;
#X connect 13 0 55 1;
#X connect 16 0 17 1;
#X connect 16 0 18 0;
#X connect 17 0 15 0;
#X connect 18 0 19 1;
#X connect 19 0 58 0;
#X connect 21 0 23 1;
#X connect 22 0 21 0;
#X connect 23 0 53 0;
#X connect 27 0 25 0;
#X connect 28 0 26 0;
#X connect 29 0 32 0;
#X connect 30 0 31 0;
#X connect 31 0 27 0;
#X connect 31 1 35 0;
#X connect 31 2 36 0;
#X connect 31 3 38 0;
#X connect 33 0 34 0;
#X connect 35 0 28 0;
#X connect 35 1 29 0;
#X connect 36 0 28 0;
#X connect 36 1 33 0;
#X connect 37 0 39 0;
#X connect 38 0 28 0;
#X connect 38 1 37 0;
#X connect 40 0 41 0;
#X connect 40 0 44 0;
#X connect 41 0 50 0;
#X connect 42 0 59 0;
#X connect 42 1 43 0;
#X connect 43 0 40 0;
#X connect 44 0 45 0;
#X connect 45 0 42 0;
#X connect 50 0 51 0;
#X connect 51 0 11 0;
#X connect 53 0 54 0;
#X connect 54 0 57 0;
#X connect 55 0 19 0;
#X connect 56 0 55 0;
#X connect 57 0 12 0;
#X connect 57 0 56 0;
#X connect 57 1 55 2;
#X connect 57 1 12 1;
#X connect 58 0 20 0;
#X connect 59 0 62 0;
#X connect 60 0 61 0;
#X connect 60 1 59 0;
#X connect 61 0 40 0;
#X connect 62 0 40 0;
#X connect 63 0 67 0;
#X connect 64 0 68 0;
#X connect 65 0 67 2;
#X connect 66 0 67 1;
#X connect 67 0 60 0;
#X connect 68 0 67 0;
